<?xml version="1.0" standalone="no"?>
<!DOCTYPE svg PUBLIC "-//W3C//DTD SVG 20010904//EN"
 "http://www.w3.org/TR/2001/REC-SVG-20010904/DTD/svg10.dtd">
<svg version="1.0" xmlns="http://www.w3.org/2000/svg"
 width="512.000000pt" height="512.000000pt" viewBox="0 0 512.000000 512.000000"
 preserveAspectRatio="xMidYMid meet">
<metadata>
Created by potrace 1.14, written by Peter Selinger 2001-2017
</metadata>
<g transform="translate(0.000000,512.000000) scale(0.100000,-0.100000)"
fill="#000000" stroke="none">
<path d="M1495 4905 c-40 -11 -55 -21 -22 -16 8 1 10 -23 7 -104 l-2 -60 21
19 c12 11 22 15 23 10 0 -5 3 -22 5 -39 2 -16 4 -35 5 -42 1 -6 7 -9 15 -6 10
4 13 -7 13 -45 0 -38 6 -57 24 -79 12 -15 27 -40 32 -54 12 -34 80 -93 99 -85
22 8 18 48 -9 85 -23 31 -25 71 -4 71 6 0 5 7 -2 15 -7 9 -10 27 -6 45 7 36
-8 39 -34 8 l-18 -23 -11 25 c-6 14 -15 32 -20 40 -6 8 -17 30 -25 48 -15 33
-15 33 26 74 l42 42 79 -85 c68 -73 167 -214 167 -238 0 -4 16 -27 36 -50 27
-31 34 -45 26 -53 -8 -8 -14 -5 -21 13 -7 18 -9 3 -6 -53 3 -62 10 -91 40
-154 19 -43 49 -100 66 -126 17 -26 41 -80 55 -120 13 -40 22 -59 19 -43 -19
120 -19 125 4 125 14 0 26 -10 34 -27 6 -16 20 -34 29 -41 10 -7 18 -20 18
-28 0 -19 29 -64 55 -86 17 -15 21 -15 31 -2 14 18 29 3 39 -39 10 -39 22 -42
49 -13 13 14 26 26 29 26 3 0 9 -16 13 -35 8 -47 20 -52 56 -25 l31 23 18 -24
c10 -13 21 -32 24 -41 3 -9 16 -18 28 -20 14 -2 23 -11 25 -25 6 -43 52 -26
59 21 5 32 13 32 13 0 0 -50 -23 -184 -32 -184 -5 0 -13 11 -17 24 -13 33 -72
128 -78 123 -2 -3 17 -65 42 -138 73 -213 77 -229 70 -286 -6 -49 -5 -53 15
-53 12 0 19 -3 17 -7 -3 -5 -1 -17 3 -28 6 -18 8 -18 32 8 32 34 46 34 51 0 3
-18 5 -12 6 18 1 53 -4 62 -32 48 -18 -10 -19 -9 -14 12 13 53 19 109 12 109
-5 0 -17 -8 -28 -18 -20 -17 -20 -16 -13 32 5 38 2 53 -10 68 -18 19 -28 127
-17 181 8 41 32 33 39 -13 5 -30 11 -40 26 -40 27 0 33 27 14 66 -9 19 -16 50
-16 69 0 24 -7 41 -24 56 -32 28 -52 90 -37 117 6 11 11 31 11 43 0 18 2 19
15 9 8 -7 14 -24 13 -39 -3 -53 2 -82 18 -88 22 -8 36 18 20 37 -18 21 -27 48
-17 55 15 8 62 -64 76 -114 12 -46 62 -137 71 -128 2 2 -7 30 -21 61 -22 50
-39 136 -27 136 2 0 13 -11 23 -24 11 -14 43 -42 72 -63 28 -21 54 -42 56 -48
2 -5 22 -28 44 -50 21 -22 46 -53 54 -70 22 -44 64 -85 86 -85 10 0 33 -10 50
-22 28 -20 32 -21 58 -6 30 18 39 14 39 -14 0 -10 6 -18 14 -18 8 0 22 -3 32
-7 14 -5 16 -2 10 21 -6 25 -5 26 13 16 20 -10 38 1 27 18 -7 11 -67 39 -97
46 -42 9 -122 81 -219 198 -75 89 -101 113 -143 132 -51 22 -89 57 -254 234
-51 54 -72 68 -173 113 -63 29 -173 72 -245 96 -200 68 -245 99 -331 231 -85
130 -184 249 -224 268 -19 9 -53 31 -75 49 -74 59 -79 61 -160 40z m111 -36
l29 -31 -30 -24 c-16 -13 -35 -28 -41 -33 -6 -5 -18 -5 -26 0 -12 7 -14 20
-10 56 7 71 31 81 78 32z m416 -491 c59 -58 119 -108 129 -108 17 0 9 -27 -12
-41 -13 -9 -22 -29 -26 -56 -3 -24 -9 -43 -13 -43 -14 0 -38 45 -54 100 -9 30
-27 71 -41 92 -21 32 -34 88 -21 88 2 0 19 -15 38 -32z m253 -149 c30 -2 39 0
37 11 -3 10 3 9 17 -4 12 -11 21 -16 21 -12 0 4 7 0 16 -8 8 -9 24 -16 33 -16
10 0 30 -9 43 -20 14 -10 29 -16 34 -12 5 4 2 -2 -6 -13 -8 -11 -15 -22 -17
-24 -3 -5 -92 39 -99 50 -11 18 -29 9 -42 -21 -13 -28 -11 -33 19 -74 44 -62
58 -66 51 -14 l-5 41 36 -28 c31 -25 37 -37 43 -82 6 -48 8 -52 25 -42 21 11
25 52 9 93 -12 32 -2 116 14 116 6 0 25 -12 41 -26 28 -23 28 -25 7 -20 -22 4
-23 2 -15 -27 4 -18 8 -78 8 -134 0 -88 -2 -101 -16 -100 -9 1 -15 6 -12 12 8
23 -24 38 -57 27 -21 -8 -39 -8 -62 0 -45 15 -214 183 -233 231 -20 50 -19 77
3 77 9 0 23 9 30 21 9 14 17 18 25 11 7 -6 30 -11 52 -13z m339 -124 c3 -13
23 -37 44 -52 65 -48 150 -148 137 -161 -4 -4 -26 14 -50 41 -24 26 -46 47
-48 47 -3 0 -11 -24 -17 -52 -6 -29 -17 -64 -24 -77 -11 -21 -14 -13 -19 74
-5 71 -11 103 -23 117 -10 10 -13 18 -9 18 4 0 0 9 -10 20 -9 10 -15 26 -12
35 9 23 24 18 31 -10z m-27 -197 c-2 -13 -4 -5 -4 17 -1 22 1 32 4 23 2 -10 2
-28 0 -40z m0 -50 c-3 -8 -6 -5 -6 6 -1 11 2 17 5 13 3 -3 4 -12 1 -19z"/>
<path d="M1400 4880 c0 -15 -5 -31 -11 -37 -6 -6 -13 -42 -16 -80 -5 -80 11
-68 22 17 4 30 11 64 15 76 5 11 4 27 -1 35 -6 10 -9 7 -9 -11z"/>
<path d="M1420 4890 c0 -5 5 -10 10 -10 6 0 11 -21 12 -47 1 -39 2 -42 5 -14
5 40 -4 81 -17 81 -6 0 -10 -4 -10 -10z"/>
<path d="M1416 4748 c-3 -13 -6 -33 -6 -45 0 -13 -4 -23 -10 -23 -5 0 -10 -24
-10 -53 0 -41 6 -61 25 -88 28 -38 63 -141 49 -146 -43 -15 -60 -33 -72 -73
-8 -25 -16 -51 -18 -58 -2 -7 -8 -10 -14 -7 -16 10 -12 169 5 220 16 47 17
115 1 127 -5 3 -10 34 -10 67 -1 68 -11 81 -19 24 -2 -21 -12 -76 -22 -123
-11 -57 -15 -108 -11 -155 17 -222 18 -247 8 -257 -7 -7 -12 -3 -17 13 -10 31
-27 47 -69 64 -72 30 -149 9 -126 -34 5 -10 7 -21 4 -24 -3 -3 1 -16 10 -28
15 -21 15 -21 13 19 -2 27 2 42 9 42 17 0 27 -32 13 -40 -8 -6 -8 -9 1 -15 6
-4 9 -13 6 -20 -6 -18 20 -40 29 -25 4 6 2 16 -3 23 -13 17 -21 66 -11 72 11
7 23 -16 25 -47 1 -16 12 -37 25 -48 27 -22 44 -26 33 -7 -4 6 -3 9 1 4 11 -9
14 -47 4 -47 -4 0 -10 6 -12 13 -4 9 -6 8 -6 -2 -1 -22 59 -75 72 -62 7 7 7
14 -2 25 -14 17 -7 22 34 21 23 0 38 9 63 39 18 21 36 45 41 53 10 19 31 9 31
-15 0 -10 9 -23 21 -30 26 -17 20 -23 -44 -42 -47 -14 -52 -19 -54 -47 -2 -30
-1 -31 34 -31 37 0 82 24 83 44 1 31 72 61 91 38 16 -19 33 -18 54 6 17 19 17
22 0 67 -10 27 -41 84 -69 128 -62 96 -82 133 -136 249 -41 88 -42 89 -35 172
7 82 3 107 -9 62z m48 -463 c-4 -8 -11 -15 -16 -15 -6 0 -5 6 2 15 7 8 14 15
16 15 2 0 1 -7 -2 -15z m6 -88 c0 -27 -2 -30 -15 -17 -8 9 -12 24 -9 37 9 32
24 18 24 -20z m-49 -30 c-10 -9 -11 -8 -5 6 3 10 9 15 12 12 3 -3 0 -11 -7
-18z m124 -65 c-12 -12 -23 21 -12 33 10 10 13 9 15 -7 2 -11 1 -23 -3 -26z"/>
<path d="M1487 4694 c-2 -15 1 -37 8 -50 11 -22 12 -20 13 21 0 50 -13 69 -21
29z"/>
<path d="M1080 4118 c0 -20 16 -32 25 -18 4 6 11 8 16 5 5 -4 9 -1 9 5 0 7 -7
9 -17 6 -9 -4 -20 -1 -25 6 -6 10 -8 9 -8 -4z"/>
<path d="M1221 4034 c0 -11 3 -14 6 -6 3 7 2 16 -1 19 -3 4 -6 -2 -5 -13z"/>
<path d="M1380 4020 c0 -5 5 -10 11 -10 5 0 7 5 4 10 -3 6 -8 10 -11 10 -2 0
-4 -4 -4 -10z"/>
<path d="M1060 3928 c10 -68 48 -137 114 -208 73 -78 92 -104 136 -192 18 -37
41 -76 50 -86 25 -27 106 -193 123 -254 9 -29 23 -93 31 -143 9 -49 23 -124
32 -165 12 -60 15 -115 11 -275 -5 -174 -4 -197 9 -181 7 11 17 35 20 53 l6
34 23 -31 c40 -54 50 -110 36 -203 -21 -140 -21 -142 17 -145 l32 -3 -22 -32
c-12 -17 -34 -56 -49 -86 -23 -47 -25 -57 -12 -59 8 -2 34 15 57 37 47 46 72
54 62 19 -4 -13 -10 -42 -13 -65 -5 -41 -4 -43 19 -43 36 0 39 -9 15 -41 -19
-27 -20 -33 -9 -76 12 -43 38 -90 69 -121 30 -31 45 -76 44 -139 0 -38 4 -61
9 -58 6 4 10 -1 10 -10 0 -9 -4 -13 -10 -10 -5 3 -10 1 -10 -4 0 -17 32 -13
45 6 11 15 15 12 34 -25 12 -24 21 -60 21 -86 0 -48 21 -93 77 -163 18 -23 33
-44 33 -47 0 -3 16 -29 36 -57 42 -57 74 -117 74 -136 0 -14 22 -44 58 -78 12
-12 22 -32 22 -44 0 -28 40 -68 63 -63 9 2 17 8 17 13 0 5 4 9 9 9 25 0 -7
-72 -68 -151 -35 -45 -46 -78 -32 -92 13 -13 24 -3 101 91 31 38 60 54 60 34
0 -5 -20 -44 -45 -87 -34 -60 -42 -82 -34 -92 20 -24 42 -14 96 44 60 63 67
55 32 -36 -11 -30 -19 -70 -17 -90 l3 -36 32 68 c18 37 35 67 38 67 11 0 -9
-76 -31 -117 -26 -50 -40 -118 -26 -127 11 -6 26 28 67 159 28 86 27 110 -5
100 -18 -6 -19 -4 -10 20 25 65 2 113 -41 86 -25 -15 -25 3 -1 43 13 23 26 29
60 32 40 4 42 3 42 -24 0 -16 20 -64 45 -108 25 -43 45 -82 45 -87 0 -4 27
-49 61 -100 33 -50 63 -103 65 -117 6 -29 42 -76 51 -66 17 17 -91 275 -142
337 -12 15 -32 59 -45 99 -16 49 -34 84 -56 106 -21 20 -46 66 -69 123 -31 81
-69 151 -102 191 -7 8 -33 39 -57 68 -25 29 -48 65 -52 80 -12 54 -16 63 -27
59 -20 -6 -55 47 -62 95 -8 55 -38 108 -61 108 -9 0 -38 -13 -64 -29 -27 -16
-51 -27 -54 -24 -3 4 -6 25 -6 47 0 41 -22 86 -41 86 -5 0 -2 -11 6 -24 18
-27 11 -76 -10 -76 -16 0 -42 68 -50 135 -4 28 -18 69 -31 93 -14 24 -32 65
-40 91 -8 27 -21 54 -29 61 -10 8 -15 31 -15 67 0 56 -12 92 -36 106 -8 5 -14
25 -14 48 0 48 -16 57 -60 34 -18 -9 -34 -14 -37 -12 -8 9 25 64 57 93 27 26
30 33 24 69 -8 52 -13 58 -30 44 -25 -21 -43 18 -44 91 0 36 -5 83 -11 105 -5
22 -14 68 -19 103 -4 35 -15 71 -23 80 -23 26 -31 81 -16 108 15 29 3 105 -43
289 -17 66 -34 147 -37 180 -5 47 -17 79 -55 145 -29 51 -49 98 -50 118 -1 37
-66 114 -210 252 -83 79 -124 132 -146 190 -20 53 -28 56 -20 8z m653 -1735
c-3 -7 -11 -13 -19 -13 -17 0 -17 5 -2 30 13 21 30 8 21 -17z m474 -803 c14
-22 7 -50 -13 -50 -22 0 -64 23 -64 35 0 6 12 16 28 22 37 15 36 15 49 -7z
m-82 -72 c50 -35 58 -58 21 -58 -21 0 -42 23 -38 43 1 4 -3 6 -9 5 -6 -2 -15
7 -20 20 -11 29 -8 28 46 -10z m165 -88 c29 -22 22 -37 -9 -18 -21 13 -36 38
-23 38 4 0 18 -9 32 -20z m-10 -180 c0 -9 -8 -32 -17 -51 l-17 -34 -12 30
c-14 32 -18 93 -8 120 5 13 11 9 30 -17 13 -17 24 -39 24 -48z m98 -232 c-2
-25 -8 -34 -25 -36 -25 -4 -30 16 -13 49 18 32 42 24 38 -13z m112 -17 c0 -16
7 -34 15 -41 18 -15 20 -63 3 -58 -26 9 -49 65 -42 102 7 41 24 39 24 -3z
m-26 -108 c4 -9 3 -20 -1 -24 -13 -13 -34 6 -27 24 8 22 20 22 28 0z m-18
-130 c-8 -16 -27 -44 -41 -63 -24 -31 -26 -32 -20 -10 15 59 39 100 57 100 17
0 17 -2 4 -27z"/>
<path d="M2470 3724 c-8 -9 -32 -14 -66 -14 -30 0 -54 -4 -54 -10 0 -5 -9 -19
-20 -30 -15 -15 -17 -25 -11 -42 l9 -23 12 28 c16 33 23 34 44 2 9 -14 22 -25
29 -25 11 0 97 101 97 113 0 13 -30 14 -40 1z"/>
<path d="M2301 3684 c0 -11 3 -14 6 -6 3 7 2 16 -1 19 -3 4 -6 -2 -5 -13z"/>
<path d="M2791 3538 c10 -62 27 -108 41 -108 12 0 1 72 -19 123 -21 53 -31 46
-22 -15z"/>
<path d="M2980 3503 c-9 -2 -21 -17 -28 -33 -11 -25 -11 -33 2 -51 12 -17 14
-41 10 -103 -12 -199 -1 -174 -132 -302 -64 -62 -128 -118 -142 -123 -14 -5
-33 -12 -42 -15 -31 -9 -20 -26 12 -19 23 4 30 2 30 -10 0 -9 -5 -19 -10 -22
-6 -3 -17 -20 -26 -37 -14 -27 -14 -31 0 -47 9 -10 16 -22 16 -28 0 -23 52
-24 96 -3 60 29 184 165 229 250 19 38 40 72 45 75 11 7 76 -32 137 -81 102
-83 298 -83 433 0 46 29 64 35 78 27 61 -32 190 67 211 161 15 70 -26 129
-121 176 -131 65 -202 92 -220 86 -25 -7 -15 -20 35 -44 23 -11 69 -38 102
-60 33 -22 80 -50 105 -62 94 -48 57 -107 -124 -198 -55 -28 -122 -62 -147
-76 -57 -31 -160 -41 -240 -25 -42 9 -69 23 -107 55 -28 24 -71 49 -96 57 -25
7 -46 19 -46 26 0 6 11 33 25 59 14 26 25 57 25 69 0 12 3 36 6 53 l6 31 69
-52 c66 -50 80 -69 59 -82 -5 -3 -10 -15 -10 -26 0 -17 5 -19 34 -13 31 5 35
3 38 -18 4 -33 76 -38 118 -8 l30 22 32 -27 c24 -21 37 -25 57 -19 14 4 44 8
66 8 25 1 53 10 73 24 34 25 41 42 18 42 -7 0 -20 10 -28 22 -13 20 -18 21
-40 11 -21 -9 -28 -8 -41 5 -12 12 -38 16 -106 16 l-90 1 -43 41 c-24 23 -58
50 -77 59 -19 10 -56 34 -83 55 -26 21 -61 41 -78 45 -31 7 -50 30 -50 62 0
21 -47 51 -70 46z"/>
<path d="M1450 3484 c8 -8 23 -20 34 -26 19 -10 18 -8 -3 16 -26 27 -53 37
-31 10z"/>
<path d="M1644 3180 c3 -16 9 -43 12 -59 4 -21 12 -31 27 -33 16 -2 23 -11 25
-30 4 -37 19 -35 36 5 14 31 14 29 15 -56 1 -73 4 -89 18 -94 9 -4 19 -1 21 5
8 26 20 9 25 -40 8 -62 20 -78 39 -49 22 35 28 24 21 -39 -4 -41 -2 -60 5 -60
16 0 26 44 27 117 0 71 -7 83 -35 58 -20 -18 -20 -18 -20 43 0 91 -18 120 -42
67 -18 -39 -28 -19 -28 54 0 37 -3 71 -7 74 -3 4 -17 -3 -30 -15 l-23 -21 0
36 c0 42 -16 49 -30 13 -15 -41 -27 -38 -39 9 -13 50 -26 62 -17 15z"/>
<path d="M3450 2834 c0 -13 -9 -28 -20 -34 -29 -16 -25 -36 16 -67 49 -38 60
-49 123 -126 38 -47 62 -67 77 -67 29 0 92 -43 164 -110 63 -58 57 -60 -68
-16 -83 29 -112 32 -112 12 0 -24 42 -43 170 -76 137 -35 171 -48 178 -69 4
-10 -1 -12 -19 -8 -67 19 -201 39 -221 33 -46 -12 -52 -21 -33 -49 l17 -26
166 4 c143 4 169 7 179 22 20 26 15 43 -14 54 -89 34 -127 59 -323 213 -52 42
-112 88 -132 103 -47 35 -54 52 -28 70 33 23 24 53 -30 104 -61 57 -90 68 -90
33z m77 -66 c36 -35 41 -48 18 -48 -8 0 -15 4 -15 9 0 5 -12 23 -26 40 -34 41
-19 40 23 -1z"/>
<path d="M1960 2725 l-35 -13 43 -1 c40 -1 43 -3 36 -23 -17 -55 -47 -99 -88
-127 -25 -17 -47 -31 -51 -31 -21 0 -155 -65 -155 -76 0 -24 17 -24 49 0 17
13 58 33 90 45 72 26 155 97 171 146 13 39 5 95 -13 94 -7 0 -28 -7 -47 -14z"/>
<path d="M2935 2528 c-27 -11 -53 -25 -57 -32 -4 -7 -50 -48 -103 -90 -94 -77
-115 -109 -79 -123 23 -9 51 8 134 81 41 36 79 66 84 66 8 0 5 -24 -9 -96 -7
-30 -5 -32 27 -37 18 -3 37 -1 43 4 19 18 25 8 25 -46 0 -49 4 -59 35 -93 25
-26 35 -32 35 -20 0 9 -5 20 -11 24 -7 4 -9 35 -4 96 7 84 6 91 -15 113 -20
22 -22 30 -16 85 5 42 3 66 -5 76 -14 17 -22 17 -84 -8z"/>
<path d="M2790 2510 c8 -5 31 -10 50 -10 26 0 31 3 20 10 -8 5 -31 10 -50 10
-26 0 -31 -3 -20 -10z"/>
<path d="M4028 2208 c-2 -4 -39 -10 -83 -14 -85 -7 -105 -16 -105 -44 0 -17
112 -90 180 -119 159 -66 271 -97 254 -70 -2 4 2 9 8 12 7 2 -2 4 -21 5 -19 0
-37 4 -40 9 -3 4 -18 14 -33 22 -15 8 -30 22 -34 33 -3 10 -9 18 -14 18 -16 0
-17 25 -2 40 14 13 15 12 9 -2 -6 -17 30 -62 52 -64 6 -1 16 -2 21 -3 6 0 10
-8 8 -17 -2 -11 6 -17 25 -20 15 -1 25 1 22 7 -4 5 2 9 11 9 10 0 14 3 10 7
-4 4 -17 8 -29 8 -16 0 -21 6 -20 20 1 16 -4 20 -21 20 -12 -1 -27 -4 -33 -8
-7 -4 -14 -3 -18 3 -3 5 1 10 9 10 23 0 20 27 -4 33 -11 3 -20 10 -20 16 0 14
17 14 26 0 5 -8 8 -8 14 0 4 8 21 -2 48 -27 48 -46 57 -43 12 3 -28 29 -29 33
-15 45 12 10 19 10 27 2 7 -7 24 -12 39 -12 17 0 34 -8 42 -20 8 -11 17 -17
20 -13 10 10 8 25 -2 18 -5 -3 -12 -1 -16 5 -4 6 6 10 22 11 25 1 25 2 -7 8
-19 4 -63 20 -98 36 -58 26 -63 27 -80 11 -20 -18 -61 -22 -63 -6 -1 6 -2 16
-3 23 -1 13 -94 19 -98 5z m214 -45 c-6 -2 -10 -9 -6 -14 9 -15 -16 -10 -32 6
-14 13 -12 15 18 14 18 0 27 -3 20 -6z m-285 -28 c0 -18 2 -18 -33 0 l-29 15
31 0 c21 0 31 -5 31 -15z m73 5 c0 -5 -2 -10 -4 -10 -3 0 -8 5 -11 10 -3 6 -1
10 4 10 6 0 11 -4 11 -10z m71 -13 c-10 -9 -11 -8 -5 6 3 10 9 15 12 12 3 -3
0 -11 -7 -18z m-106 -28 c-3 -4 -12 -6 -20 -3 -8 4 -13 10 -10 15 3 4 12 6 20
3 8 -4 13 -10 10 -15z m40 11 c3 -5 -1 -10 -9 -10 -9 0 -16 5 -16 10 0 6 4 10
9 10 6 0 13 -4 16 -10z m35 -11 c0 -6 -4 -7 -10 -4 -5 3 -10 11 -10 16 0 6 5
7 10 4 6 -3 10 -11 10 -16z m47 5 c-3 -3 -12 -4 -19 -1 -8 3 -5 6 6 6 11 1 17
-2 13 -5z m-39 -43 c3 -8 -1 -12 -9 -9 -7 2 -15 10 -17 17 -3 8 1 12 9 9 7 -2
15 -10 17 -17z m42 -6 c0 -8 -4 -15 -9 -15 -5 0 -11 7 -15 15 -3 9 0 15 9 15
8 0 15 -7 15 -15z"/>
<path d="M3100 2147 c32 -16 64 -74 79 -142 15 -66 25 -74 41 -35 12 28 10 32
-14 55 -14 13 -26 30 -26 38 0 28 -59 97 -83 97 -22 0 -22 -1 3 -13z"/>
<path d="M3634 2081 c-29 -20 -60 -42 -70 -49 -18 -12 -17 -12 4 -7 12 3 30 8
41 11 17 5 18 2 11 -34 -4 -22 -16 -52 -28 -66 -11 -14 -18 -34 -16 -44 3 -12
-20 -34 -83 -80 -52 -37 -119 -98 -165 -150 -384 -436 -420 -486 -402 -557 5
-19 12 -25 28 -23 11 1 27 -1 34 -6 18 -11 92 52 135 116 42 64 90 159 117
231 22 60 59 98 142 151 31 20 59 40 63 46 3 5 37 28 75 50 75 44 134 61 310
89 104 16 119 16 156 3 95 -35 100 39 6 87 -39 20 -14 31 71 32 45 0 115 6
156 13 72 13 128 8 156 -14 32 -26 184 -52 170 -30 -4 6 -11 8 -16 4 -5 -3
-15 -2 -22 3 -7 5 -30 15 -52 22 -22 7 -57 24 -78 38 -36 25 -40 25 -110 15
-39 -6 -128 -14 -197 -16 -69 -3 -138 -9 -155 -14 -41 -12 -44 -37 -5 -51 17
-6 29 -14 26 -19 -3 -5 -54 -14 -113 -21 -141 -16 -238 -43 -310 -85 -32 -19
-60 -33 -62 -30 -10 9 77 99 156 160 109 84 114 88 86 79 -15 -4 -23 -2 -23 6
0 24 83 161 102 168 14 5 2 8 -33 8 -46 0 -61 -5 -105 -36z"/>
<path d="M4400 2105 c7 -8 21 -15 32 -15 17 0 18 3 8 15 -7 8 -21 15 -32 15
-17 0 -18 -3 -8 -15z"/>
<path d="M4455 2051 c-8 -27 -2 -36 13 -18 6 7 7 18 3 26 -7 10 -10 8 -16 -8z"/>
<path d="M4317 2020 c8 -17 19 -27 25 -24 5 4 0 16 -13 30 -29 31 -31 30 -12
-6z"/>
<path d="M4402 1995 c-11 -13 -8 -15 17 -15 23 0 29 4 25 15 -8 19 -25 19 -42
0z"/>
<path d="M2625 1750 c-4 -6 -1 -18 6 -26 17 -21 -3 -153 -41 -276 -17 -53 -32
-125 -35 -160 -3 -34 -9 -79 -15 -98 -17 -58 -12 -125 14 -187 13 -32 27 -66
30 -75 13 -41 35 -15 76 90 44 115 91 204 97 185 3 -7 -1 -38 -6 -69 -12 -64
-14 -144 -5 -168 9 -23 40 -20 59 7 14 20 15 15 8 -78 -7 -105 -8 -116 -3
-205 2 -52 3 -50 11 30 16 163 31 274 41 299 16 43 26 111 17 117 -5 3 -21
-16 -36 -42 -16 -25 -36 -56 -45 -68 -17 -21 -18 -20 -12 14 3 19 19 91 35
159 32 133 35 216 9 216 -26 0 -188 -307 -211 -402 -6 -23 -15 -43 -19 -43 -4
0 -15 27 -25 59 l-18 60 28 88 c16 48 53 144 82 213 57 131 77 220 52 220 -8
0 -25 -18 -39 -40 -23 -38 -40 -51 -40 -32 0 5 5 46 11 91 11 81 7 131 -11
131 -5 0 -12 -5 -15 -10z"/>
</g>
</svg>
